<svg xmlns="http://www.w3.org/2000/svg" xmlns:xlink="http://www.w3.org/1999/xlink" width="1080" zoomAndPan="magnify" viewBox="0 0 810 404.99999" height="540" preserveAspectRatio="xMidYMid meet" version="1.0"><defs><g/><clipPath id="29632e44e8"><path d="M 0 220 L 26 220 L 26 262.300781 L 0 262.300781 Z M 0 220 " clip-rule="nonzero"/></clipPath><clipPath id="089d7c9343"><path d="M 31 210 L 57 210 L 57 262.300781 L 31 262.300781 Z M 31 210 " clip-rule="nonzero"/></clipPath><clipPath id="f7319f3cd3"><path d="M 62 194 L 89 194 L 89 262.300781 L 62 262.300781 Z M 62 194 " clip-rule="nonzero"/></clipPath><clipPath id="4bfcb5aa69"><path d="M 93 174 L 119.09375 174 L 119.09375 262.300781 L 93 262.300781 Z M 93 174 " clip-rule="nonzero"/></clipPath><clipPath id="fa460f6c55"><path d="M 0 143.207031 L 103 143.207031 L 103 201 L 0 201 Z M 0 143.207031 " clip-rule="nonzero"/></clipPath><clipPath id="128cc3ee4d"><path d="M 0 143.207031 L 36.644531 143.207031 L 36.644531 171.707031 L 0 171.707031 Z M 0 143.207031 " clip-rule="nonzero"/></clipPath></defs><g fill="#7c3ef0" fill-opacity="1"><g transform="translate(139.52168, 264.344352)"><g><path d="M 35.953125 -40.824219 L 40.152344 -41.496094 C 77.113281 -46.871094 90.71875 -59.136719 90.71875 -76.609375 C 90.71875 -91.222656 81.480469 -104.328125 46.03125 -104.328125 C 36.289062 -104.328125 20.328125 -103.65625 4.871094 -104.328125 L 4.871094 -99.625 C 13.609375 -98.953125 16.128906 -96.261719 16.128906 -91.390625 L 16.128906 -13.105469 C 16.128906 -7.222656 13.273438 -5.375 4.199219 -4.703125 L 4.199219 0 C 18.648438 -0.503906 33.265625 -0.503906 47.710938 0 L 47.710938 -4.703125 C 38.808594 -5.375 35.953125 -7.222656 35.953125 -13.105469 Z M 35.953125 -46.535156 L 35.953125 -99.121094 L 48.886719 -99.121094 C 64.511719 -99.121094 71.230469 -89.207031 71.230469 -75.765625 C 71.230469 -61.152344 63.839844 -50.0625 40.152344 -47.039062 Z M 35.953125 -46.535156 "/></g></g></g><g fill="#7c3ef0" fill-opacity="1"><g transform="translate(234.438005, 264.344352)"><g><path d="M 58.128906 -21.167969 C 58.128906 -10.921875 50.902344 -4.199219 39.144531 -4.199219 C 26.710938 -4.199219 15.289062 -11.59375 9.574219 -24.527344 L 4.199219 -24.527344 L 5.710938 0 L 11.425781 0 C 12.097656 -2.183594 13.945312 -4.535156 17.136719 -4.535156 C 22.511719 -4.535156 28.894531 2.183594 42.167969 2.183594 C 58.632812 2.183594 77.113281 -7.726562 77.113281 -27.886719 C 77.113281 -49.390625 55.945312 -57.289062 42.671875 -63.503906 C 30.070312 -69.550781 22.679688 -75.429688 22.679688 -85.34375 C 22.679688 -94.414062 29.0625 -100.96875 39.984375 -100.96875 C 48.550781 -100.96875 57.289062 -96.765625 64.007812 -82.488281 L 68.710938 -82.488281 L 67.535156 -105.671875 L 61.992188 -105.671875 C 61.320312 -103.488281 59.976562 -103.152344 58.128906 -103.152344 C 54.09375 -103.152344 49.222656 -107.015625 37.632812 -107.015625 C 17.976562 -107.015625 5.375 -95.925781 5.375 -79.296875 C 5.375 -62.160156 19.152344 -52.75 34.945312 -45.359375 C 49.222656 -38.640625 58.128906 -32.589844 58.128906 -21.167969 Z M 58.128906 -21.167969 "/></g></g></g><g fill="#7c3ef0" fill-opacity="1"><g transform="translate(315.746855, 264.344352)"><g><path d="M 36.289062 -13.105469 L 36.289062 -91.222656 C 36.289062 -97.101562 39.480469 -98.953125 48.382812 -99.625 L 48.382812 -104.328125 C 33.9375 -103.824219 18.648438 -103.824219 4.199219 -104.328125 L 4.199219 -99.625 C 13.273438 -98.953125 16.464844 -97.101562 16.464844 -91.222656 L 16.464844 -13.105469 C 16.464844 -7.222656 13.273438 -5.375 4.199219 -4.703125 L 4.199219 0 C 18.648438 -0.503906 33.9375 -0.503906 48.382812 0 L 48.382812 -4.703125 C 39.480469 -5.375 36.289062 -7.222656 36.289062 -13.105469 Z M 36.289062 -13.105469 "/></g></g></g><g fill="#7c3ef0" fill-opacity="1"><g transform="translate(368.328808, 264.344352)"><g><path d="M 16.128906 1.679688 C 21.671875 1.679688 26.375 -3.023438 26.375 -8.734375 C 26.375 -14.28125 21.671875 -18.984375 16.128906 -18.984375 C 10.582031 -18.984375 5.878906 -14.28125 5.878906 -8.734375 C 5.878906 -3.023438 10.582031 1.679688 16.128906 1.679688 Z M 16.128906 1.679688 "/></g></g></g><g fill="#7c3ef0" fill-opacity="1"><g transform="translate(400.583572, 264.344352)"><g><path d="M 90.382812 -28.222656 C 84.671875 -11.257812 73.414062 -4.367188 61.320312 -4.367188 C 39.144531 -4.367188 26.878906 -27.046875 26.878906 -57.960938 C 26.878906 -88.871094 38.808594 -100.96875 54.9375 -100.96875 C 69.382812 -100.96875 79.296875 -91.054688 86.015625 -75.261719 L 95.085938 -75.261719 C 90.886719 -85.34375 89.207031 -94.582031 87.695312 -104.160156 C 84.503906 -103.488281 82.992188 -103.320312 80.808594 -103.320312 C 70.894531 -103.320312 67.199219 -107.015625 55.441406 -107.015625 C 26.039062 -107.015625 5.878906 -84.335938 5.878906 -52.917969 C 5.878906 -21 26.542969 2.351562 56.953125 2.351562 C 82.152344 2.351562 93.40625 -13.441406 97.269531 -28.222656 Z M 90.382812 -28.222656 "/></g></g></g><g fill="#7c3ef0" fill-opacity="1"><g transform="translate(501.211665, 264.344352)"><g><path d="M 93.910156 -18.144531 L 61.824219 -105.167969 L 50.230469 -105.167969 L 19.65625 -16.632812 C 16.96875 -8.902344 12.769531 -5.542969 1.679688 -4.703125 L 1.679688 0 C 13.945312 -0.503906 28.390625 -0.503906 40.824219 0 L 40.824219 -4.703125 C 29.902344 -5.542969 23.351562 -7.726562 25.535156 -14.113281 L 32.253906 -34.105469 L 67.535156 -34.105469 L 74.589844 -14.785156 C 77.113281 -8.0625 75.765625 -5.542969 64.511719 -4.703125 L 64.511719 0 C 79.632812 -0.503906 95.253906 -0.503906 110.375 0 L 110.375 -4.703125 C 98.617188 -5.542969 97.101562 -9.574219 93.910156 -18.144531 Z M 34.105469 -39.648438 L 49.054688 -84.671875 L 65.519531 -39.648438 Z M 34.105469 -39.648438 "/></g></g></g><g fill="#7c3ef0" fill-opacity="1"><g transform="translate(613.263319, 264.344352)"><g><path d="M 73.246094 -25.535156 L 59.136719 -45.359375 C 81.816406 -51.910156 90.71875 -62.496094 90.71875 -76.609375 C 90.71875 -91.222656 81.480469 -104.328125 46.03125 -104.328125 C 36.289062 -104.328125 20.328125 -103.65625 4.871094 -104.328125 L 4.871094 -99.625 C 13.609375 -98.953125 16.128906 -96.261719 16.128906 -91.390625 L 16.128906 -13.105469 C 16.128906 -7.222656 13.273438 -5.375 4.199219 -4.703125 L 4.199219 0 C 18.648438 -0.503906 33.265625 -0.503906 47.710938 0 L 47.710938 -4.703125 C 38.808594 -5.375 35.953125 -7.222656 35.953125 -13.105469 L 35.953125 -40.824219 L 40.152344 -41.496094 C 40.65625 -41.496094 41.160156 -41.664062 41.496094 -41.664062 L 56.785156 -19.992188 C 69.046875 -2.351562 82.488281 1.511719 95.757812 1.34375 L 99.289062 -4.03125 C 91.726562 -4.703125 82.320312 -12.601562 73.246094 -25.535156 Z M 35.953125 -99.121094 L 48.886719 -99.121094 C 64.511719 -99.121094 71.230469 -89.207031 71.230469 -75.765625 C 71.230469 -61.152344 63.839844 -50.0625 40.152344 -47.039062 L 35.953125 -46.535156 Z M 35.953125 -99.121094 "/></g></g></g><g fill="#7c3ef0" fill-opacity="1"><g transform="translate(715.067403, 264.344352)"><g><path d="M 79.128906 -27.550781 L 73.246094 -16.464844 C 68.878906 -8.566406 63.839844 -5.542969 51.238281 -5.542969 L 42 -5.542969 C 36.960938 -5.542969 35.953125 -7.222656 35.953125 -13.105469 L 35.953125 -50.734375 L 55.945312 -50.734375 C 64.34375 -50.734375 66.527344 -46.535156 68.375 -39.648438 L 72.574219 -39.648438 C 71.734375 -49.222656 71.734375 -57.960938 72.574219 -67.367188 L 68.375 -67.367188 C 66.527344 -60.480469 64.34375 -56.449219 55.945312 -56.449219 L 35.953125 -56.449219 L 35.953125 -95.085938 C 35.953125 -97.773438 36.960938 -99.121094 39.648438 -99.121094 L 53.925781 -99.121094 C 65.519531 -99.121094 70.558594 -95.421875 74.925781 -86.015625 L 76.609375 -82.320312 L 81.144531 -82.320312 L 78.625 -101.304688 C 78.289062 -103.824219 77.953125 -104.328125 75.765625 -104.328125 L 4.199219 -104.328125 L 4.199219 -99.625 C 13.273438 -98.953125 16.128906 -97.773438 16.128906 -92.902344 L 16.128906 -13.105469 C 16.128906 -7.222656 13.273438 -5.375 4.199219 -4.703125 L 4.199219 0 C 29.398438 -0.503906 52.582031 -0.503906 78.792969 0 C 79.296875 -9.070312 80.640625 -17.808594 84 -27.550781 Z M 79.128906 -27.550781 "/></g></g></g><g clip-path="url(#29632e44e8)"><path fill="#7c3ef0" d="M 23.300781 220.875 L 2.589844 220.875 C 1.160156 220.875 0 222.035156 0 223.464844 L 0 259.710938 C 0 261.144531 1.160156 262.300781 2.589844 262.300781 L 23.300781 262.300781 C 24.730469 262.300781 25.890625 261.144531 25.890625 259.710938 L 25.890625 223.464844 C 25.890625 222.035156 24.730469 220.875 23.300781 220.875 Z M 20.710938 257.121094 L 5.179688 257.121094 L 5.179688 226.054688 L 20.710938 226.054688 Z M 20.710938 257.121094 " fill-opacity="1" fill-rule="nonzero"/></g><g clip-path="url(#089d7c9343)"><path fill="#7c3ef0" d="M 54.367188 210.519531 L 33.65625 210.519531 C 32.226562 210.519531 31.066406 211.679688 31.066406 213.109375 L 31.066406 259.710938 C 31.066406 261.144531 32.226562 262.300781 33.65625 262.300781 L 54.367188 262.300781 C 55.796875 262.300781 56.957031 261.144531 56.957031 259.710938 L 56.957031 213.109375 C 56.957031 211.679688 55.796875 210.519531 54.367188 210.519531 Z M 51.78125 257.121094 L 36.246094 257.121094 L 36.246094 215.699219 L 51.78125 215.699219 Z M 51.78125 257.121094 " fill-opacity="1" fill-rule="nonzero"/></g><g clip-path="url(#f7319f3cd3)"><path fill="#7c3ef0" d="M 85.4375 194.988281 L 64.726562 194.988281 C 63.292969 194.988281 62.136719 196.148438 62.136719 197.574219 L 62.136719 259.710938 C 62.136719 261.144531 63.292969 262.300781 64.726562 262.300781 L 85.4375 262.300781 C 86.867188 262.300781 88.027344 261.144531 88.027344 259.710938 L 88.027344 197.574219 C 88.027344 196.148438 86.867188 194.988281 85.4375 194.988281 Z M 82.847656 257.121094 L 67.3125 257.121094 L 67.3125 200.164062 L 82.847656 200.164062 Z M 82.847656 257.121094 " fill-opacity="1" fill-rule="nonzero"/></g><g clip-path="url(#4bfcb5aa69)"><path fill="#7c3ef0" d="M 116.503906 174.273438 L 95.792969 174.273438 C 94.359375 174.273438 93.203125 175.433594 93.203125 176.863281 L 93.203125 259.710938 C 93.203125 261.144531 94.359375 262.300781 95.792969 262.300781 L 116.503906 262.300781 C 117.9375 262.300781 119.09375 261.144531 119.09375 259.710938 L 119.09375 176.863281 C 119.09375 175.433594 117.9375 174.273438 116.503906 174.273438 Z M 113.914062 257.121094 L 98.382812 257.121094 L 98.382812 179.453125 L 113.914062 179.453125 Z M 113.914062 257.121094 " fill-opacity="1" fill-rule="nonzero"/></g><g clip-path="url(#fa460f6c55)"><path fill="#7c3ef0" d="M 100.269531 163.917969 C 101.699219 163.917969 102.859375 162.757812 102.859375 161.328125 L 102.859375 145.796875 C 102.859375 145.742188 102.828125 145.699219 102.828125 145.648438 C 102.816406 145.46875 102.769531 145.300781 102.722656 145.125 C 102.675781 144.96875 102.644531 144.816406 102.574219 144.671875 C 102.507812 144.53125 102.410156 144.414062 102.3125 144.289062 C 102.207031 144.140625 102.097656 143.996094 101.960938 143.875 C 101.921875 143.839844 101.90625 143.792969 101.863281 143.761719 C 101.777344 143.695312 101.671875 143.671875 101.582031 143.617188 C 101.421875 143.527344 101.277344 143.4375 101.101562 143.378906 C 100.929688 143.320312 100.761719 143.296875 100.585938 143.273438 C 100.480469 143.257812 100.378906 143.207031 100.269531 143.207031 L 85.4375 143.207031 C 84.003906 143.207031 82.847656 144.367188 82.847656 145.796875 C 82.847656 147.226562 84.003906 148.386719 85.4375 148.386719 L 94.734375 148.386719 C 78.765625 166.550781 43.433594 194.988281 2.589844 194.988281 C 1.160156 194.988281 0 196.148438 0 197.574219 C 0 199.003906 1.160156 200.164062 2.589844 200.164062 C 44.441406 200.164062 80.628906 171.769531 97.679688 152.867188 L 97.679688 161.328125 C 97.679688 162.757812 98.835938 163.917969 100.269531 163.917969 Z M 100.269531 163.917969 " fill-opacity="1" fill-rule="nonzero"/></g><g clip-path="url(#128cc3ee4d)"><path fill="#7c3ef0" d="M 3.367188 155.011719 C 3.039062 153.699219 3 152.324219 3.261719 151 C 3.597656 149.234375 4.457031 147.5625 5.820312 146.199219 C 7.640625 144.398438 10.042969 143.496094 12.449219 143.496094 C 14.539062 143.496094 16.632812 144.179688 18.335938 145.542969 C 20.039062 144.179688 22.128906 143.496094 24.222656 143.496094 C 26.625 143.496094 29.015625 144.398438 30.847656 146.199219 C 31.730469 147.085938 32.40625 148.117188 32.875 149.222656 C 33.34375 150.355469 33.578125 151.578125 33.578125 152.785156 C 33.578125 153.40625 33.070312 153.90625 32.445312 153.90625 C 31.808594 153.90625 31.304688 153.40625 31.304688 152.785156 C 31.316406 151.859375 31.132812 150.945312 30.769531 150.070312 C 30.433594 149.25 29.914062 148.476562 29.238281 147.792969 C 27.859375 146.429688 26.039062 145.75 24.222656 145.75 C 22.402344 145.75 20.582031 146.429688 19.207031 147.792969 L 19.140625 147.859375 C 18.699219 148.296875 17.972656 148.296875 17.53125 147.859375 L 17.464844 147.792969 C 16.085938 146.429688 14.269531 145.75 12.449219 145.75 C 10.628906 145.75 8.808594 146.429688 7.433594 147.792969 C 6.394531 148.824219 5.742188 150.097656 5.484375 151.421875 C 5.261719 152.621094 5.339844 153.855469 5.730469 155.011719 L 9.160156 155.011719 L 11.628906 150.109375 C 11.902344 149.558594 12.589844 149.339844 13.148438 149.609375 C 13.371094 149.726562 13.539062 149.890625 13.644531 150.097656 L 17.554688 157.574219 L 20.792969 152.890625 C 21.15625 152.375 21.855469 152.246094 22.375 152.59375 C 22.507812 152.683594 22.609375 152.800781 22.703125 152.929688 L 24.105469 155.078125 L 35.527344 155.078125 C 36.164062 155.078125 36.671875 155.578125 36.671875 156.210938 C 36.671875 156.828125 36.164062 157.328125 35.527344 157.328125 L 32.367188 157.328125 C 32.214844 157.613281 32.042969 157.882812 31.847656 158.140625 C 31.550781 158.5625 31.210938 158.960938 30.847656 159.324219 L 19.140625 170.914062 C 18.699219 171.367188 17.972656 171.367188 17.53125 170.914062 L 6.847656 160.351562 C 6.40625 159.914062 6.40625 159.195312 6.847656 158.757812 C 7.304688 158.320312 8.015625 158.320312 8.460938 158.757812 L 18.335938 168.535156 L 29.238281 157.742188 C 29.367188 157.597656 29.496094 157.46875 29.613281 157.328125 L 23.480469 157.328125 C 23.105469 157.328125 22.738281 157.148438 22.53125 156.8125 L 21.699219 155.554688 L 18.359375 160.390625 C 18.257812 160.546875 18.113281 160.675781 17.933594 160.765625 C 17.386719 161.046875 16.699219 160.828125 16.410156 160.273438 L 12.65625 153.097656 L 10.914062 156.542969 C 10.746094 156.96875 10.332031 157.265625 9.851562 157.265625 L 1.144531 157.265625 C 0.507812 157.265625 0 156.761719 0 156.132812 C 0 155.515625 0.507812 155.011719 1.144531 155.011719 Z M 3.367188 155.011719 " fill-opacity="1" fill-rule="nonzero"/></g></svg>