<svg xmlns="http://www.w3.org/2000/svg" xmlns:xlink="http://www.w3.org/1999/xlink" width="1080" zoomAndPan="magnify" viewBox="0 0 810 135.000003" height="180" preserveAspectRatio="xMidYMid meet" version="1.0"><defs><g/><clipPath id="1e9a8eff5e"><path d="M 7.195312 85 L 34 85 L 34 126.796875 L 7.195312 126.796875 Z M 7.195312 85 " clip-rule="nonzero"/></clipPath><clipPath id="33e07786cb"><path d="M 38 75 L 65 75 L 65 126.796875 L 38 126.796875 Z M 38 75 " clip-rule="nonzero"/></clipPath><clipPath id="9828a857b3"><path d="M 69 59 L 96 59 L 96 126.796875 L 69 126.796875 Z M 69 59 " clip-rule="nonzero"/></clipPath><clipPath id="994636dc2d"><path d="M 100 38 L 126.273438 38 L 126.273438 126.796875 L 100 126.796875 Z M 100 38 " clip-rule="nonzero"/></clipPath><clipPath id="abd80a7a12"><path d="M 7.195312 7.71875 L 111 7.71875 L 111 65 L 7.195312 65 Z M 7.195312 7.71875 " clip-rule="nonzero"/></clipPath><clipPath id="e5923d2eb0"><path d="M 7.195312 8 L 43.835938 8 L 43.835938 36 L 7.195312 36 Z M 7.195312 8 " clip-rule="nonzero"/></clipPath></defs><g fill="#7c3ef0" fill-opacity="1"><g transform="translate(146.698328, 128.839011)"><g><path d="M 35.945312 -40.816406 L 40.144531 -41.488281 C 77.101562 -46.863281 90.707031 -59.128906 90.707031 -76.597656 C 90.707031 -91.210938 81.46875 -104.3125 46.023438 -104.3125 C 36.28125 -104.3125 20.324219 -103.640625 4.871094 -104.3125 L 4.871094 -99.609375 C 13.605469 -98.9375 16.125 -96.25 16.125 -91.378906 L 16.125 -13.101562 C 16.125 -7.222656 13.269531 -5.375 4.199219 -4.703125 L 4.199219 0 C 18.644531 -0.503906 33.257812 -0.503906 47.703125 0 L 47.703125 -4.703125 C 38.800781 -5.375 35.945312 -7.222656 35.945312 -13.101562 Z M 35.945312 -46.527344 L 35.945312 -99.105469 L 48.878906 -99.105469 C 64.503906 -99.105469 71.222656 -89.195312 71.222656 -75.757812 C 71.222656 -61.144531 63.832031 -50.054688 40.144531 -47.03125 Z M 35.945312 -46.527344 "/></g></g></g><g fill="#7c3ef0" fill-opacity="1"><g transform="translate(241.600781, 128.839011)"><g><path d="M 58.117188 -21.164062 C 58.117188 -10.917969 50.894531 -4.199219 39.136719 -4.199219 C 26.707031 -4.199219 15.285156 -11.589844 9.574219 -24.523438 L 4.199219 -24.523438 L 5.710938 0 L 11.421875 0 C 12.09375 -2.183594 13.941406 -4.535156 17.132812 -4.535156 C 22.507812 -4.535156 28.890625 2.183594 42.160156 2.183594 C 58.621094 2.183594 77.101562 -7.726562 77.101562 -27.882812 C 77.101562 -49.382812 55.933594 -57.277344 42.664062 -63.496094 C 30.066406 -69.542969 22.675781 -75.421875 22.675781 -85.332031 C 22.675781 -94.402344 29.058594 -100.953125 39.976562 -100.953125 C 48.542969 -100.953125 57.277344 -96.753906 64 -82.476562 L 68.703125 -82.476562 L 67.527344 -105.65625 L 61.984375 -105.65625 C 61.3125 -103.472656 59.96875 -103.136719 58.117188 -103.136719 C 54.085938 -103.136719 49.214844 -107 37.625 -107 C 17.972656 -107 5.375 -95.914062 5.375 -79.285156 C 5.375 -62.152344 19.148438 -52.742188 34.9375 -45.351562 C 49.214844 -38.632812 58.117188 -32.585938 58.117188 -21.164062 Z M 58.117188 -21.164062 "/></g></g></g><g fill="#7c3ef0" fill-opacity="1"><g transform="translate(322.897749, 128.839011)"><g><path d="M 36.28125 -13.101562 L 36.28125 -91.210938 C 36.28125 -97.089844 39.472656 -98.9375 48.375 -99.609375 L 48.375 -104.3125 C 33.929688 -103.808594 18.644531 -103.808594 4.199219 -104.3125 L 4.199219 -99.609375 C 13.269531 -98.9375 16.460938 -97.089844 16.460938 -91.210938 L 16.460938 -13.101562 C 16.460938 -7.222656 13.269531 -5.375 4.199219 -4.703125 L 4.199219 0 C 18.644531 -0.503906 33.929688 -0.503906 48.375 0 L 48.375 -4.703125 C 39.472656 -5.375 36.28125 -7.222656 36.28125 -13.101562 Z M 36.28125 -13.101562 "/></g></g></g><g fill="#7c3ef0" fill-opacity="1"><g transform="translate(375.472017, 128.839011)"><g><path d="M 16.125 1.679688 C 21.667969 1.679688 26.371094 -3.023438 26.371094 -8.734375 C 26.371094 -14.277344 21.667969 -18.980469 16.125 -18.980469 C 10.582031 -18.980469 5.878906 -14.277344 5.878906 -8.734375 C 5.878906 -3.023438 10.582031 1.679688 16.125 1.679688 Z M 16.125 1.679688 "/></g></g></g><g fill="#7c3ef0" fill-opacity="1"><g transform="translate(407.722067, 128.839011)"><g><path d="M 90.371094 -28.21875 C 84.660156 -11.253906 73.40625 -4.367188 61.3125 -4.367188 C 39.136719 -4.367188 26.875 -27.042969 26.875 -57.949219 C 26.875 -88.859375 38.800781 -100.953125 54.925781 -100.953125 C 69.375 -100.953125 79.285156 -91.042969 86.003906 -75.253906 L 95.074219 -75.253906 C 90.875 -85.332031 89.195312 -94.570312 87.683594 -104.144531 C 84.492188 -103.472656 82.980469 -103.304688 80.796875 -103.304688 C 70.886719 -103.304688 67.191406 -107 55.429688 -107 C 26.035156 -107 5.878906 -84.324219 5.878906 -52.910156 C 5.878906 -20.996094 26.539062 2.351562 56.941406 2.351562 C 82.140625 2.351562 93.394531 -13.4375 97.257812 -28.21875 Z M 90.371094 -28.21875 "/></g></g></g><g fill="#7c3ef0" fill-opacity="1"><g transform="translate(508.335454, 128.839011)"><g><path d="M 93.898438 -18.140625 L 61.816406 -105.152344 L 50.222656 -105.152344 L 19.652344 -16.628906 C 16.964844 -8.902344 12.765625 -5.542969 1.679688 -4.703125 L 1.679688 0 C 13.941406 -0.503906 28.386719 -0.503906 40.816406 0 L 40.816406 -4.703125 C 29.898438 -5.542969 23.347656 -7.726562 25.53125 -14.109375 L 32.25 -34.097656 L 67.527344 -34.097656 L 74.582031 -14.78125 C 77.101562 -8.0625 75.757812 -5.542969 64.503906 -4.703125 L 64.503906 0 C 79.621094 -0.503906 95.242188 -0.503906 110.359375 0 L 110.359375 -4.703125 C 98.601562 -5.542969 97.089844 -9.574219 93.898438 -18.140625 Z M 34.097656 -39.640625 L 49.046875 -84.660156 L 65.511719 -39.640625 Z M 34.097656 -39.640625 "/></g></g></g><g fill="#7c3ef0" fill-opacity="1"><g transform="translate(620.370731, 128.839011)"><g><path d="M 73.238281 -25.53125 L 59.128906 -45.351562 C 81.804688 -51.902344 90.707031 -62.488281 90.707031 -76.597656 C 90.707031 -91.210938 81.46875 -104.3125 46.023438 -104.3125 C 36.28125 -104.3125 20.324219 -103.640625 4.871094 -104.3125 L 4.871094 -99.609375 C 13.605469 -98.9375 16.125 -96.25 16.125 -91.378906 L 16.125 -13.101562 C 16.125 -7.222656 13.269531 -5.375 4.199219 -4.703125 L 4.199219 0 C 18.644531 -0.503906 33.257812 -0.503906 47.703125 0 L 47.703125 -4.703125 C 38.800781 -5.375 35.945312 -7.222656 35.945312 -13.101562 L 35.945312 -40.816406 L 40.144531 -41.488281 C 40.648438 -41.488281 41.152344 -41.65625 41.488281 -41.65625 L 56.773438 -19.988281 C 69.039062 -2.351562 82.476562 1.511719 95.746094 1.34375 L 99.273438 -4.03125 C 91.714844 -4.703125 82.308594 -12.597656 73.238281 -25.53125 Z M 35.945312 -99.105469 L 48.878906 -99.105469 C 64.503906 -99.105469 71.222656 -89.195312 71.222656 -75.757812 C 71.222656 -61.144531 63.832031 -50.054688 40.144531 -47.03125 L 35.945312 -46.527344 Z M 35.945312 -99.105469 "/></g></g></g><g fill="#7c3ef0" fill-opacity="1"><g transform="translate(722.159937, 128.839011)"><g><path d="M 79.117188 -27.546875 L 73.238281 -16.460938 C 68.871094 -8.566406 63.832031 -5.542969 51.230469 -5.542969 L 41.992188 -5.542969 C 36.953125 -5.542969 35.945312 -7.222656 35.945312 -13.101562 L 35.945312 -50.726562 L 55.933594 -50.726562 C 64.335938 -50.726562 66.519531 -46.527344 68.367188 -39.640625 L 72.566406 -39.640625 C 71.726562 -49.214844 71.726562 -57.949219 72.566406 -67.359375 L 68.367188 -67.359375 C 66.519531 -60.472656 64.335938 -56.4375 55.933594 -56.4375 L 35.945312 -56.4375 L 35.945312 -95.074219 C 35.945312 -97.761719 36.953125 -99.105469 39.640625 -99.105469 L 53.917969 -99.105469 C 65.511719 -99.105469 70.550781 -95.410156 74.917969 -86.003906 L 76.597656 -82.308594 L 81.132812 -82.308594 L 78.613281 -101.289062 C 78.277344 -103.808594 77.941406 -104.3125 75.757812 -104.3125 L 4.199219 -104.3125 L 4.199219 -99.609375 C 13.269531 -98.9375 16.125 -97.761719 16.125 -92.890625 L 16.125 -13.101562 C 16.125 -7.222656 13.269531 -5.375 4.199219 -4.703125 L 4.199219 0 C 29.394531 -0.503906 52.574219 -0.503906 78.78125 0 C 79.285156 -9.070312 80.628906 -17.804688 83.988281 -27.546875 Z M 79.117188 -27.546875 "/></g></g></g><g clip-path="url(#1e9a8eff5e)"><path fill="#7c3ef0" d="M 30.496094 85.378906 L 9.785156 85.378906 C 8.355469 85.378906 7.195312 86.535156 7.195312 87.964844 L 7.195312 124.207031 C 7.195312 125.636719 8.355469 126.796875 9.785156 126.796875 L 30.496094 126.796875 C 31.921875 126.796875 33.082031 125.636719 33.082031 124.207031 L 33.082031 87.964844 C 33.082031 86.535156 31.921875 85.378906 30.496094 85.378906 Z M 27.90625 121.617188 L 12.375 121.617188 L 12.375 90.554688 L 27.90625 90.554688 Z M 27.90625 121.617188 " fill-opacity="1" fill-rule="nonzero"/></g><g clip-path="url(#33e07786cb)"><path fill="#7c3ef0" d="M 61.558594 75.023438 L 40.847656 75.023438 C 39.421875 75.023438 38.261719 76.179688 38.261719 77.613281 L 38.261719 124.207031 C 38.261719 125.636719 39.421875 126.796875 40.847656 126.796875 L 61.558594 126.796875 C 62.988281 126.796875 64.148438 125.636719 64.148438 124.207031 L 64.148438 77.613281 C 64.148438 76.179688 62.988281 75.023438 61.558594 75.023438 Z M 58.96875 121.617188 L 43.4375 121.617188 L 43.4375 80.199219 L 58.96875 80.199219 Z M 58.96875 121.617188 " fill-opacity="1" fill-rule="nonzero"/></g><g clip-path="url(#9828a857b3)"><path fill="#7c3ef0" d="M 92.621094 59.492188 L 71.914062 59.492188 C 70.480469 59.492188 69.324219 60.652344 69.324219 62.082031 L 69.324219 124.207031 C 69.324219 125.636719 70.480469 126.796875 71.914062 126.796875 L 92.621094 126.796875 C 94.054688 126.796875 95.210938 125.636719 95.210938 124.207031 L 95.210938 62.082031 C 95.210938 60.652344 94.054688 59.492188 92.621094 59.492188 Z M 90.03125 121.617188 L 74.5 121.617188 L 74.5 64.667969 L 90.03125 64.667969 Z M 90.03125 121.617188 " fill-opacity="1" fill-rule="nonzero"/></g><g clip-path="url(#994636dc2d)"><path fill="#7c3ef0" d="M 123.683594 38.78125 L 102.976562 38.78125 C 101.542969 38.78125 100.386719 39.941406 100.386719 41.371094 L 100.386719 124.207031 C 100.386719 125.636719 101.542969 126.796875 102.976562 126.796875 L 123.683594 126.796875 C 125.117188 126.796875 126.273438 125.636719 126.273438 124.207031 L 126.273438 41.371094 C 126.273438 39.941406 125.117188 38.78125 123.683594 38.78125 Z M 121.097656 121.617188 L 105.5625 121.617188 L 105.5625 43.960938 L 121.097656 43.960938 Z M 121.097656 121.617188 " fill-opacity="1" fill-rule="nonzero"/></g><g clip-path="url(#abd80a7a12)"><path fill="#7c3ef0" d="M 107.453125 28.429688 C 108.882812 28.429688 110.039062 27.269531 110.039062 25.839844 L 110.039062 10.308594 C 110.039062 10.253906 110.011719 10.210938 110.007812 10.160156 C 110 9.980469 109.953125 9.8125 109.902344 9.636719 C 109.859375 9.480469 109.828125 9.328125 109.757812 9.183594 C 109.691406 9.042969 109.59375 8.925781 109.496094 8.800781 C 109.386719 8.652344 109.28125 8.507812 109.144531 8.386719 C 109.101562 8.351562 109.085938 8.304688 109.046875 8.273438 C 108.960938 8.207031 108.855469 8.183594 108.765625 8.132812 C 108.605469 8.039062 108.457031 7.949219 108.28125 7.890625 C 108.113281 7.832031 107.941406 7.808594 107.765625 7.785156 C 107.660156 7.769531 107.5625 7.71875 107.453125 7.71875 L 92.621094 7.71875 C 91.191406 7.71875 90.03125 8.878906 90.03125 10.308594 C 90.03125 11.738281 91.191406 12.898438 92.621094 12.898438 L 101.917969 12.898438 C 85.953125 31.0625 50.625 59.492188 9.785156 59.492188 C 8.355469 59.492188 7.195312 60.652344 7.195312 62.082031 C 7.195312 63.507812 8.355469 64.667969 9.785156 64.667969 C 51.628906 64.667969 87.8125 36.277344 104.863281 17.378906 L 104.863281 25.839844 C 104.863281 27.269531 106.019531 28.429688 107.453125 28.429688 Z M 107.453125 28.429688 " fill-opacity="1" fill-rule="nonzero"/></g><g clip-path="url(#e5923d2eb0)"><path fill="#7c3ef0" d="M 10.5625 19.523438 C 10.238281 18.210938 10.199219 16.835938 10.457031 15.507812 C 10.796875 13.746094 11.652344 12.074219 13.019531 10.710938 C 14.835938 8.910156 17.242188 8.007812 19.644531 8.007812 C 21.734375 8.007812 23.828125 8.691406 25.53125 10.054688 C 27.230469 8.691406 29.324219 8.007812 31.414062 8.007812 C 33.820312 8.007812 36.210938 8.910156 38.042969 10.710938 C 38.925781 11.597656 39.601562 12.628906 40.066406 13.734375 C 40.535156 14.867188 40.769531 16.089844 40.769531 17.296875 C 40.769531 17.914062 40.261719 18.417969 39.640625 18.417969 C 39.003906 18.417969 38.496094 17.914062 38.496094 17.296875 C 38.507812 16.371094 38.328125 15.457031 37.964844 14.582031 C 37.625 13.761719 37.105469 12.988281 36.429688 12.304688 C 35.054688 10.941406 33.234375 10.261719 31.414062 10.261719 C 29.597656 10.261719 27.777344 10.941406 26.398438 12.304688 L 26.335938 12.371094 C 25.894531 12.808594 25.164062 12.808594 24.722656 12.371094 L 24.660156 12.304688 C 23.28125 10.941406 21.460938 10.261719 19.644531 10.261719 C 17.824219 10.261719 16.007812 10.941406 14.628906 12.304688 C 13.589844 13.335938 12.941406 14.609375 12.679688 15.933594 C 12.460938 17.128906 12.535156 18.367188 12.925781 19.523438 L 16.355469 19.523438 L 18.824219 14.621094 C 19.097656 14.070312 19.785156 13.851562 20.34375 14.121094 C 20.566406 14.234375 20.734375 14.402344 20.839844 14.609375 L 24.75 22.082031 L 27.984375 17.402344 C 28.347656 16.886719 29.050781 16.757812 29.570312 17.105469 C 29.699219 17.195312 29.804688 17.3125 29.894531 17.4375 L 31.296875 19.585938 L 42.71875 19.585938 C 43.355469 19.585938 43.863281 20.089844 43.863281 20.71875 C 43.863281 21.335938 43.355469 21.839844 42.71875 21.839844 L 39.5625 21.839844 C 39.40625 22.121094 39.238281 22.390625 39.042969 22.648438 C 38.742188 23.074219 38.40625 23.472656 38.042969 23.832031 L 26.335938 35.425781 C 25.894531 35.875 25.164062 35.875 24.722656 35.425781 L 14.042969 24.863281 C 13.601562 24.425781 13.601562 23.703125 14.042969 23.265625 C 14.5 22.828125 15.214844 22.828125 15.65625 23.265625 L 25.53125 33.042969 L 36.429688 22.25 C 36.558594 22.109375 36.691406 21.980469 36.808594 21.839844 L 30.675781 21.839844 C 30.296875 21.839844 29.933594 21.660156 29.726562 21.324219 L 28.894531 20.0625 L 25.554688 24.902344 C 25.453125 25.054688 25.308594 25.183594 25.125 25.273438 C 24.582031 25.558594 23.890625 25.339844 23.605469 24.785156 L 19.851562 17.605469 L 18.109375 21.054688 C 17.941406 21.480469 17.527344 21.773438 17.046875 21.773438 L 8.339844 21.773438 C 7.703125 21.773438 7.195312 21.273438 7.195312 20.644531 C 7.195312 20.023438 7.703125 19.523438 8.339844 19.523438 Z M 10.5625 19.523438 " fill-opacity="1" fill-rule="nonzero"/></g></svg>